<?xml version="1.0" standalone="no"?>
<!DOCTYPE svg PUBLIC "-//W3C//DTD SVG 20010904//EN"
 "http://www.w3.org/TR/2001/REC-SVG-20010904/DTD/svg10.dtd">
<svg version="1.0" xmlns="http://www.w3.org/2000/svg"
 width="725.000000pt" height="1280.000000pt" viewBox="0 0 725.000000 1280.000000"
 preserveAspectRatio="xMidYMid meet">
<metadata>
Created by potrace 1.15, written by Peter Selinger 2001-2017
</metadata>
<g transform="translate(0.000000,1280.000000) scale(0.100000,-0.100000)"
fill="#000000" stroke="none">
<path d="M3335 12501 c-88 -44 -154 -80 -147 -80 17 -1 17 -111 -1 -111 -7 0
-51 -18 -96 -40 l-84 -41 6 51 c4 36 13 57 29 70 l23 19 -37 -6 c-28 -4 -37
-2 -40 11 -5 26 -160 -113 -203 -184 -48 -80 -147 -299 -191 -424 -22 -62 -37
-128 -41 -171 -4 -64 0 -84 46 -228 55 -169 59 -210 41 -342 -20 -140 -27
-151 -185 -301 -88 -84 -146 -147 -150 -163 -3 -14 -22 -56 -41 -93 -19 -37
-34 -73 -34 -81 0 -8 -21 -63 -46 -123 -87 -207 -101 -301 -70 -463 9 -46 16
-111 16 -145 0 -70 -32 -299 -88 -636 -29 -169 -42 -281 -47 -400 -4 -91 -15
-297 -25 -457 l-18 -293 -42 -46 c-49 -53 -75 -109 -85 -179 -5 -42 -2 -58 19
-98 30 -56 32 -106 16 -346 -32 -469 -40 -514 -109 -620 -29 -44 -53 -92 -53
-105 0 -14 16 -58 36 -98 36 -73 36 -75 27 -144 -6 -38 -26 -229 -46 -424
l-35 -354 -38 -41 c-105 -111 -106 -112 -39 -207 l40 -57 -6 -183 c-7 -175
-24 -372 -48 -543 -8 -57 -20 -92 -39 -120 -14 -22 -43 -70 -63 -107 l-38 -67
21 -62 c46 -135 37 -343 -33 -833 l-42 -289 -35 -12 -35 -12 -2 -79 c-1 -43
-8 -163 -14 -266 l-12 -188 -44 -36 c-50 -41 -50 -42 -9 -139 l25 -60 -51
-490 c-38 -366 -55 -493 -65 -502 -11 -9 -12 -16 -4 -32 18 -33 13 -130 -9
-177 -32 -65 -46 -73 -171 -92 -95 -14 -107 -18 -74 -22 l40 -5 -72 -23 c-40
-12 -80 -25 -90 -28 -10 -3 -1 5 20 17 34 21 48 39 30 39 -5 0 -45 7 -91 15
l-82 14 -63 -30 c-46 -22 -75 -29 -112 -28 -38 2 -64 -5 -112 -29 -55 -28 -64
-37 -87 -88 -16 -35 -26 -74 -26 -103 l0 -48 88 -31 c437 -154 396 -143 527
-147 176 -5 232 -14 238 -36 6 -22 13 -23 137 -5 127 18 252 7 324 -28 l53
-26 1146 0 1145 0 42 28 42 27 -186 3 c-156 2 -186 5 -186 17 0 13 36 15 250
15 145 0 250 -4 250 -9 0 -9 56 -24 143 -36 43 -7 49 -5 54 13 7 27 33 33 203
42 134 7 200 19 225 41 5 5 -26 9 -73 9 -66 0 -82 3 -82 15 0 12 19 15 115 15
63 0 115 -4 115 -8 0 -4 23 -16 51 -26 37 -14 53 -16 62 -7 6 6 7 11 2 12 -6
0 35 16 90 35 55 18 94 33 88 34 -7 0 -13 6 -13 14 0 9 33 25 90 44 99 34 120
25 38 -14 -29 -13 -41 -22 -27 -19 15 2 42 -2 61 -10 l35 -14 59 50 c32 28 76
60 97 72 26 15 35 27 30 37 -3 8 -18 50 -32 92 -15 42 -35 86 -45 97 -28 30
-91 49 -190 55 -54 4 -106 14 -132 25 -48 22 -344 48 -419 38 l-43 -6 -7 38
c-4 25 -1 51 10 79 10 23 15 49 11 57 -5 13 128 15 1169 15 1096 0 1211 2
1184 24 -2 2 -520 8 -1150 15 -630 7 -1154 14 -1165 17 -16 4 -19 16 -22 87
-2 45 2 163 7 262 9 155 15 194 41 279 37 122 38 149 5 173 l-26 18 20 170
c23 193 38 250 80 317 l30 48 -45 76 -45 76 26 237 c14 130 30 263 35 296 5
33 12 98 15 145 20 259 19 257 69 304 59 55 60 80 4 186 l-41 79 11 133 c7 73
24 187 37 253 27 125 31 150 65 375 21 137 58 240 88 240 6 0 12 10 12 22 0
20 -1 21 -20 3 -20 -18 -20 -17 -20 13 0 18 -4 32 -10 32 -5 0 -10 14 -10 30
0 20 5 30 15 30 11 0 15 -11 15 -37 0 -20 3 -33 7 -30 3 4 12 2 20 -4 23 -19
15 1 -42 106 -49 91 -55 110 -55 162 0 71 23 259 50 414 11 63 25 143 30 180
19 129 30 165 70 218 26 35 40 64 40 84 0 16 -22 81 -50 143 -61 137 -62 166
-24 419 14 94 31 229 38 300 11 113 18 141 49 211 45 98 47 147 16 310 l-21
111 20 184 c11 101 18 186 17 187 -7 7 -43 -74 -60 -133 -18 -60 -17 -139 1
-285 l7 -54 -54 55 c-139 143 -424 269 -921 408 -338 95 -464 110 -885 112
-186 1 -369 4 -408 8 l-70 6 96 7 c53 4 112 5 132 1 l37 -6 0 327 0 326 25 0
c31 0 31 2 9 -273 -15 -197 -12 -353 7 -341 5 3 9 30 9 60 l0 55 52 -3 52 -3
13 -45 c7 -24 19 -50 26 -57 16 -16 97 -28 131 -19 l26 6 0 310 0 310 45 0
c43 0 44 -1 40 -27 -3 -16 -12 -92 -20 -170 -16 -153 -19 -242 -9 -292 6 -31
7 -31 26 -14 10 9 48 56 84 105 l66 88 28 -15 c16 -8 36 -15 45 -15 11 0 15
-11 15 -44 0 -35 -7 -54 -35 -90 l-35 -46 34 -61 c33 -60 34 -60 40 -33 4 16
11 83 17 149 16 197 45 403 52 375 15 -63 16 -100 5 -323 -9 -168 -9 -243 -2
-255 14 -21 53 -28 58 -10 26 98 126 378 140 395 3 4 91 -20 99 -27 5 -4 2
-77 -7 -161 -15 -141 -20 -258 -11 -234 3 6 20 116 40 245 20 129 38 236 40
239 11 11 4 -215 -10 -313 -11 -79 -12 -118 -5 -145 10 -39 45 -80 57 -68 3 4
21 58 39 120 18 61 46 148 62 192 29 78 30 80 65 83 32 3 37 0 43 -23 4 -15
-3 -86 -15 -159 -22 -135 -28 -248 -12 -231 11 13 39 165 48 270 7 71 9 58 13
-110 l5 -190 33 91 c18 51 51 130 74 175 l41 84 13 -30 c16 -37 38 -164 30
-172 -3 -4 -17 4 -30 16 -14 13 -29 20 -34 17 -14 -8 -30 -80 -37 -171 l-7
-80 48 -11 c74 -18 78 -13 92 123 15 148 56 386 60 353 2 -14 15 -63 30 -110
24 -78 27 -99 27 -260 0 -152 2 -179 18 -203 10 -15 22 -25 26 -23 11 7 35
135 66 341 l23 160 1 -199 c1 -120 6 -214 13 -238 10 -35 10 -40 -10 -54 -30
-20 -28 -45 6 -77 51 -49 68 -32 89 88 l7 40 7 -40 c5 -22 8 -59 8 -82 1 -23
5 -44 10 -47 13 -8 31 156 31 286 l0 116 44 11 c57 14 56 14 57 -6 2 -32 18
61 18 107 1 25 10 64 21 85 55 107 56 129 34 540 -4 66 -1 237 5 380 13 253
14 263 48 370 58 183 57 191 -31 480 -24 77 -52 175 -62 217 -14 62 -20 75
-31 67 -19 -16 -27 -7 -113 120 -60 88 -80 111 -99 111 -22 0 -23 2 -17 53 3
28 8 106 11 172 7 146 11 165 31 165 14 0 15 -9 10 -52 -3 -29 -8 -107 -10
-173 l-5 -120 14 110 c8 61 19 137 24 170 6 33 29 179 51 325 46 294 47 332 5
455 -19 59 -244 526 -261 544 -2 3 -10 -3 -17 -13 -11 -15 -17 -12 -63 32 -60
58 -145 117 -229 159 -46 24 -404 153 -422 153 -1 0 -2 -6 -1 -12 4 -20 -56
-20 -177 -1 -90 15 -116 16 -145 6 -48 -16 -101 -16 -193 2 -43 8 -80 15 -81
15 -1 0 -74 -36 -161 -79z m451 2 c-3 -10 -8 -35 -12 -55 l-6 -38 -124 0 -124
0 0 55 0 55 136 0 c124 0 135 -1 130 -17z m274 -49 l0 -67 -52 6 c-29 3 -88 9
-130 13 l-78 7 0 48 0 48 68 4 c37 2 95 4 130 5 l62 2 0 -66z m-574 -2 c-8
-59 -20 -72 -70 -73 -23 -1 -31 -4 -18 -6 14 -3 22 -12 22 -24 0 -16 -7 -19
-45 -19 -32 0 -45 -4 -45 -14 0 -13 -41 -26 -81 -26 -39 0 -17 27 31 39 28 7
50 17 50 22 0 12 -18 11 -62 -5 l-38 -14 0 54 0 53 68 20 c104 31 176 48 186
43 4 -3 6 -25 2 -50z m812 11 c74 -22 91 -30 86 -42 -3 -9 -9 -35 -11 -58 -3
-24 -7 -43 -9 -43 -1 0 -40 9 -86 20 -100 24 -118 25 -118 5 0 -11 -12 -15
-47 -15 -100 0 -126 30 -37 41 27 3 41 7 32 7 -21 2 -23 25 -7 86 l11 43 46
-9 c26 -4 89 -20 140 -35z m232 -94 c56 -24 84 -41 81 -50 -2 -8 -5 -30 -8
-50 l-5 -37 -77 35 c-143 64 -129 51 -114 106 10 32 18 45 26 40 7 -5 50 -24
97 -44z m-602 -6 c-3 -16 -21 -18 -183 -21 -203 -3 -265 2 -265 24 0 12 36 14
226 14 209 0 225 -1 222 -17z m370 -40 c32 -4 42 -10 42 -24 0 -16 -6 -18 -47
-12 -67 8 -116 25 -121 42 -4 11 4 13 39 7 24 -4 63 -10 87 -13z m-1319 -119
c-6 -8 -16 -14 -21 -14 -5 0 -34 -16 -64 -35 -30 -19 -57 -35 -59 -35 -8 0 -5
84 3 98 5 7 37 28 73 47 l64 34 8 -40 c6 -28 5 -45 -4 -55z m1421 76 c0 -5 -9
-10 -19 -10 -11 0 -23 5 -26 10 -4 6 5 10 19 10 14 0 26 -4 26 -10z m-1595
-130 c8 -13 -62 -140 -76 -140 -12 0 -5 24 27 98 22 51 36 63 49 42z m1435
-160 c347 -71 625 -223 708 -386 29 -58 46 -148 32 -174 -12 -23 -48 -40 -86
-40 -22 0 -24 4 -24 46 0 72 -19 121 -62 159 -42 39 -54 41 -82 20 -18 -14
-26 -8 -114 86 -130 137 -161 150 -212 86 -37 -45 -106 -15 -145 64 -15 28
-39 58 -58 69 -63 39 -214 16 -246 -37 -11 -17 -12 -17 -29 7 -9 13 -37 49
-61 79 l-45 54 160 -6 c103 -3 196 -13 264 -27z m-277 -360 c0 -41 -3 -125 -4
-186 -3 -75 0 -116 8 -125 6 -8 58 -30 113 -49 l102 -35 -7 -60 c-3 -33 -10
-118 -15 -189 -5 -71 -11 -130 -13 -132 -2 -2 -40 2 -85 8 -66 10 -82 15 -82
29 0 41 11 49 69 50 31 1 67 4 81 8 21 6 11 11 -61 34 -102 32 -99 31 -99 12
0 -18 -37 -20 -92 -3 -38 11 -39 12 -33 52 2 23 12 145 21 271 15 212 14 314
-2 373 -6 22 -5 23 47 20 l54 -3 -2 -75z m472 -9 c52 -23 84 -62 136 -161 28
-54 47 -80 59 -80 20 0 70 47 70 66 0 27 30 14 79 -33 27 -27 53 -61 57 -78 4
-16 1 -106 -6 -200 -7 -93 -16 -224 -19 -289 -4 -69 -10 -121 -16 -123 -6 -2
-19 3 -29 10 -16 12 -17 20 -6 96 18 119 9 291 -19 363 -38 97 -103 137 -207
125 -49 -5 -89 -35 -106 -77 -5 -14 -20 -90 -33 -168 -13 -79 -26 -146 -29
-149 -3 -3 -12 2 -21 11 -9 9 -30 16 -46 16 -17 0 -29 5 -29 13 0 6 14 156 30
332 16 176 30 326 30 333 0 18 58 15 105 -7z m-1185 -486 c0 -131 -2 -155 -15
-155 -13 0 -15 24 -15 155 0 131 2 155 15 155 13 0 15 -24 15 -155z m-180 -45
c0 -118 -2 -140 -15 -140 -13 0 -15 22 -15 140 0 118 2 140 15 140 13 0 15
-22 15 -140z m1846 43 c-3 -38 -9 -151 -12 -253 -8 -200 -12 -233 -31 -222 -9
6 -9 70 0 275 10 253 12 267 30 267 18 0 19 -5 13 -67z m-1000 -174 c46 -12
51 -22 32 -64 -10 -22 -17 -25 -66 -25 -51 0 -54 1 -48 23 3 12 6 34 6 50 0
31 9 33 76 16z m-686 -54 c0 -24 -5 -35 -15 -35 -10 0 -15 11 -15 35 0 24 5
35 15 35 10 0 15 -11 15 -35z m-176 -12 c-12 -50 -23 -73 -35 -73 -8 0 -9 13
-5 42 8 49 13 58 32 58 11 0 13 -7 8 -27z m1236 -34 c0 -33 -3 -40 -17 -37
-13 2 -19 14 -21 41 -3 32 0 37 17 37 18 0 21 -6 21 -41z m-208 -67 c26 -15
48 -30 48 -34 0 -9 -41 -10 -91 -2 -36 6 -59 33 -59 69 0 18 29 8 102 -33z
m-852 3 c0 -24 -5 -35 -15 -35 -10 0 -15 11 -15 35 0 24 5 35 15 35 10 0 15
-11 15 -35z m710 10 c0 -24 -3 -25 -55 -25 -52 0 -55 1 -55 25 0 24 3 25 55
25 52 0 55 -1 55 -25z m-884 -11 c-3 -9 -9 -27 -12 -40 -4 -14 -14 -24 -24
-24 -15 0 -16 4 -7 40 8 29 16 40 30 40 13 0 17 -5 13 -16z m1214 -30 c14 -35
12 -54 -4 -54 -8 0 -17 11 -20 24 -3 13 -9 31 -12 40 -4 11 -1 16 10 16 9 0
21 -12 26 -26z m81 6 c20 -11 24 -36 10 -59 -7 -11 -13 -9 -30 8 -22 22 -29
61 -10 61 6 0 19 -5 30 -10z m-1741 -45 c0 -32 -4 -37 -60 -65 -33 -16 -61
-30 -62 -30 -2 0 -4 22 -4 50 -2 49 -2 49 40 64 22 8 51 15 64 15 19 1 22 -4
22 -34z m2180 -54 c0 -9 -20 -37 -20 -29 0 3 -2 13 -5 21 -4 8 0 14 10 14 8 0
15 -3 15 -6z m-2187 -16 c10 -25 -104 -98 -123 -79 -7 7 9 23 48 51 65 47 68
49 75 28z m-147 -61 c-2 -6 -32 -32 -66 -58 -53 -40 -61 -44 -55 -24 13 42 54
106 82 126 l28 21 7 -27 c5 -15 6 -32 4 -38z m2322 -13 c8 -24 7 -31 -5 -35
-20 -8 -21 -6 -29 32 -9 42 20 44 34 3z m-1067 -65 c-20 -30 -51 -93 -67 -140
l-29 -86 -47 0 c-41 0 -48 3 -48 20 0 12 5 17 13 14 9 -3 20 18 35 64 27 85
27 84 -4 122 -15 17 -25 32 -23 34 2 2 45 8 94 14 50 5 95 10 102 11 7 0 -5
-23 -26 -53z m679 25 c188 -56 425 -199 592 -360 152 -145 227 -275 242 -416
l7 -60 -22 40 c-11 22 -39 68 -62 103 l-40 63 -40 -38 -39 -38 5 45 c19 146
19 161 3 204 -22 58 -43 74 -87 69 -35 -5 -35 -5 -46 -69 -6 -35 -21 -79 -32
-97 l-21 -32 0 100 c-1 204 -25 259 -111 253 -51 -4 -58 -14 -84 -128 -28
-118 -30 -122 -60 -108 -29 13 -29 10 -10 72 20 64 19 178 0 216 -27 52 -100
76 -141 45 -19 -14 -18 -14 4 -15 13 0 22 -6 22 -15 0 -8 -4 -15 -9 -15 -5 0
-16 -3 -25 -6 -11 -4 -16 0 -16 12 0 16 -3 15 -20 -6 -16 -21 -36 -65 -81
-177 -8 -22 -9 -23 -44 -6 -26 12 -35 23 -35 42 l0 24 24 -23 25 -23 7 29 c4
16 8 65 7 109 0 141 -43 195 -156 195 -32 0 -71 -7 -87 -15 -41 -21 -79 -75
-89 -126 -6 -29 -9 -35 -10 -18 -2 49 -30 122 -62 161 l-32 40 224 -5 c193 -3
234 -7 299 -26z m580 -6 c0 -24 -5 -35 -15 -35 -10 0 -15 11 -15 35 0 24 5 35
15 35 10 0 15 -11 15 -35z m-100 -11 c13 -33 13 -34 -8 -34 -10 0 -22 12 -29
30 -10 27 -9 30 8 30 12 0 23 -10 29 -26z m-1054 -10 c25 -7 33 -24 10 -24
-26 0 -76 22 -70 32 3 5 13 7 21 4 8 -4 26 -9 39 -12z m-1506 -29 c0 -15 -52
-105 -60 -105 -14 0 -13 5 11 61 12 27 28 49 35 49 8 0 14 -2 14 -5z m2792
-87 c29 -35 33 -46 24 -60 -8 -13 -8 -23 1 -38 9 -13 9 -21 2 -26 -13 -7 -9
-11 -49 54 -36 59 -33 82 6 37 l24 -30 -17 38 c-9 20 -23 37 -30 37 -7 0 -13
7 -13 15 0 25 16 17 52 -27z m-1138 -90 c6 -27 5 -28 -34 -28 -37 0 -40 2 -40
28 l0 27 18 -23 c14 -18 20 -20 30 -10 6 6 12 19 12 27 0 20 6 11 14 -21z
m786 -53 c0 -9 -9 -15 -25 -15 -16 0 -25 6 -25 15 0 9 9 15 25 15 16 0 25 -6
25 -15z m-782 -174 c2 -12 -8 -140 -22 -284 -14 -144 -26 -289 -28 -322 -2
-60 14 -111 32 -100 5 3 30 72 56 153 26 81 58 170 71 197 30 58 92 139 102
130 3 -4 8 -113 11 -243 l5 -236 37 235 c21 129 36 209 33 179 -12 -133 -18
-480 -8 -480 15 0 42 64 94 220 27 80 47 129 44 110 -2 -19 -10 -107 -16 -194
-11 -159 -11 -160 10 -178 26 -21 89 -34 101 -22 5 5 13 38 18 74 7 44 10 54
11 29 3 -82 69 -166 164 -207 58 -25 64 -20 86 81 28 121 51 278 51 347 l1 55
22 -40 c21 -37 22 -56 27 -286 5 -225 7 -249 24 -268 28 -31 43 -26 54 17 7
27 10 31 11 13 2 -47 60 -148 112 -195 54 -48 67 -54 74 -33 3 6 18 100 35
207 l29 195 -3 -160 c-3 -144 4 -304 19 -455 l5 -55 -49 100 c-164 328 -552
550 -1151 659 -273 50 -683 75 -908 56 -72 -6 -137 -8 -144 -4 -6 4 22 17 67
31 43 12 80 25 82 27 2 2 15 82 28 177 28 208 64 421 74 431 3 4 3 -45 -1
-110 -4 -64 -12 -200 -17 -302 -11 -233 -21 -220 155 -220 68 0 124 1 125 3 0
1 11 70 24 152 12 83 23 133 24 113 1 -24 10 -47 26 -65 l25 -28 121 125 c104
108 119 121 115 95 -28 -171 -32 -348 -9 -390 13 -23 37 119 73 440 16 143 30
261 30 262 0 1 10 -1 23 -6 12 -4 23 -18 25 -30z m-1028 -31 c0 -29 -4 -40
-15 -40 -11 0 -15 11 -15 40 0 29 4 40 15 40 11 0 15 -11 15 -40z m640 -122
c-18 -103 -24 -75 -8 39 8 61 14 85 16 64 2 -18 -2 -65 -8 -103z m979 -286
c-12 -72 -24 -131 -26 -129 -2 2 7 91 19 198 20 164 24 184 26 129 2 -37 -6
-121 -19 -198z m-1666 -13 l-6 -247 -27 10 c-18 6 -27 15 -25 26 2 9 16 117
31 239 15 123 29 222 30 220 1 -1 0 -113 -3 -248z m664 189 c-3 -7 -5 -2 -5
12 0 14 2 19 5 13 2 -7 2 -19 0 -25z m1295 -93 c3 -29 1 -35 -14 -35 -13 0
-18 8 -18 29 0 16 6 32 13 34 6 3 13 6 13 6 1 1 4 -15 6 -34z m393 -220 c-7
-91 -8 -94 -36 -105 -48 -20 -75 -92 -100 -270 -12 -85 -24 -157 -27 -160 -13
-13 11 268 32 371 20 99 29 122 61 165 21 27 45 64 54 82 21 45 25 27 16 -83z
m-2675 20 c0 -24 -5 -35 -15 -35 -10 0 -15 11 -15 35 0 24 5 35 15 35 10 0 15
-11 15 -35z m-10 -220 c0 -24 -5 -35 -15 -35 -10 0 -15 11 -15 35 0 24 5 35
15 35 10 0 15 -11 15 -35z m1548 -129 c73 -15 211 -49 306 -76 449 -127 572
-214 722 -506 l47 -92 -6 -89 c-6 -89 -22 -153 -37 -153 -22 0 -53 96 -60 188
-4 54 -11 105 -15 115 -11 26 -53 21 -86 -12 l-29 -29 0 39 c0 28 4 39 15 39
21 0 35 33 35 84 0 63 -38 106 -100 113 -39 4 -48 1 -69 -21 -29 -31 -41 -33
-41 -8 0 25 -72 135 -101 156 -13 9 -42 16 -65 16 -66 0 -114 -56 -114 -136 0
-40 -5 -41 -45 -13 -26 18 -27 20 -7 16 30 -7 42 18 42 85 -1 68 -29 132 -69
152 -39 21 -103 20 -144 0 -57 -29 -86 -64 -53 -64 27 0 28 -21 6 -76 -24 -58
-26 -60 -64 -43 -22 10 -24 15 -14 32 6 12 11 51 12 87 1 113 -53 170 -160
170 -67 0 -98 -24 -119 -93 -8 -28 -22 -65 -29 -82 l-14 -30 -1 51 c-1 70 -40
144 -90 172 -77 43 -204 20 -226 -41 -6 -20 -6 -30 3 -35 8 -6 3 -29 -20 -85
-32 -77 -43 -86 -82 -71 -14 5 -14 8 -1 27 9 12 15 44 15 73 0 64 -28 109 -89
141 l-43 23 193 3 c342 7 451 1 597 -27z m-902 -42 c-7 -52 -44 -185 -54 -195
-4 -4 -29 -10 -57 -14 l-50 -7 26 29 c34 36 44 56 59 121 12 52 51 112 72 112
7 0 8 -17 4 -46z m812 -68 c3 -13 -6 -16 -42 -16 -39 0 -46 3 -46 19 0 17 6
19 43 16 29 -2 43 -8 45 -19z m890 -346 c37 -57 37 -56 18 -63 -10 -4 -25 12
-45 48 -35 62 -36 65 -18 65 6 0 27 -23 45 -50z m-2141 -437 c-1 -54 -3 -12
-3 92 0 105 2 149 3 98 2 -51 2 -136 0 -190z m2368 -53 c18 -7 17 -9 -15 -23
-40 -18 -44 -16 -35 12 7 22 18 25 50 11z m-2695 -115 c0 -24 -5 -35 -15 -35
-10 0 -15 11 -15 35 0 24 5 35 15 35 10 0 15 -11 15 -35z m1019 -196 c-11 -23
-36 -81 -54 -128 -18 -47 -36 -85 -39 -83 -3 1 -26 2 -51 2 l-45 0 0 125 0
125 105 0 105 0 -21 -41z m646 12 c355 -83 788 -289 910 -433 62 -73 70 -107
70 -295 0 -94 -3 -174 -6 -177 -2 -3 -24 1 -47 7 l-43 13 30 29 c17 17 31 37
31 46 0 20 -74 249 -92 284 l-14 26 -29 -70 c-15 -39 -31 -71 -35 -71 -21 0
-52 102 -65 213 -6 50 -9 57 -28 57 -36 0 -87 -37 -87 -62 0 -13 -18 -95 -40
-182 l-40 -159 34 -51 35 -51 18 -232 c9 -128 20 -230 22 -227 6 6 29 158 61
399 21 161 27 191 35 184 5 -6 -12 -244 -31 -427 l-16 -153 26 -37 c14 -20 32
-46 41 -57 10 -15 -13 -7 -88 30 -266 131 -735 240 -1297 300 -230 25 -641 31
-852 11 -97 -9 -209 -16 -248 -16 -62 0 -71 2 -66 16 3 9 6 38 6 65 0 27 5 49
10 49 6 0 10 -11 10 -24 0 -14 4 -36 10 -50 9 -25 13 -26 85 -26 47 0 87 6
104 15 31 16 63 72 82 147 l13 46 27 -42 c14 -24 40 -52 55 -63 55 -38 176
-73 188 -55 10 17 47 241 65 398 l18 159 7 -188 c6 -127 12 -189 20 -192 6 -1
29 -7 51 -11 48 -11 48 -25 4 -97 -16 -27 -29 -52 -29 -57 0 -24 190 -40 207
-17 6 6 14 41 17 77 8 72 58 372 81 490 l15 75 -5 -115 c-3 -63 -8 -171 -11
-240 l-6 -125 104 103 c98 97 106 102 131 93 25 -10 27 -15 27 -70 0 -49 -4
-65 -26 -90 -14 -17 -21 -31 -15 -31 27 0 51 -41 51 -87 0 -83 16 -81 31 4
l13 78 9 -65 c4 -36 18 -87 31 -115 l23 -50 15 30 c9 17 30 85 47 153 17 67
40 140 50 160 20 39 91 110 130 131 l21 12 -5 -223 c-3 -123 -3 -218 0 -213 2
6 18 102 35 215 17 113 37 239 44 280 l14 75 1 -100 c1 -56 -6 -155 -15 -220
-19 -144 -15 -276 10 -323 10 -19 20 -32 22 -29 3 3 20 63 39 133 18 71 40
148 49 172 24 66 87 182 96 177 5 -3 13 -28 19 -56 11 -51 6 -121 -19 -274
-12 -73 -13 -185 -2 -185 17 0 74 423 95 700 11 146 15 165 30 162 24 -4 22
33 -5 105 -30 82 -64 113 -123 113 -55 0 -97 -20 -112 -53 -7 -14 -17 -62 -24
-107 -14 -89 -12 -87 -84 -60 -28 11 -30 20 -13 67 13 37 20 40 38 18 35 -42
41 14 9 78 -29 57 -75 104 -117 118 -32 11 -42 8 -114 -27 -68 -33 -77 -41
-71 -59 12 -31 9 -123 -3 -135 -16 -16 -53 8 -61 40 -3 14 -20 76 -38 139
l-32 113 196 -5 c148 -4 218 -11 286 -26z m-1065 -56 c11 -13 11 -30 -1 -93
l-14 -77 -45 4 c-25 1 -47 4 -48 6 -2 2 9 42 24 89 24 73 31 86 50 86 12 0 27
-7 34 -15z m1210 -100 c0 -9 -9 -15 -25 -15 -16 0 -25 6 -25 15 0 9 9 15 25
15 16 0 25 -6 25 -15z m720 -935 c2 -75 3 -80 10 -43 10 49 42 114 66 134 16
13 17 11 11 -31 -3 -25 -18 -134 -33 -242 -26 -188 -27 -199 -11 -253 l16 -57
-42 39 c-23 21 -55 47 -71 59 l-28 20 21 190 c28 246 42 328 52 294 4 -14 8
-63 9 -110z m-2911 -61 c-23 -15 -29 -10 -29 23 l0 32 21 -23 c18 -19 19 -25
8 -32z m151 26 c0 -11 -12 -15 -50 -15 -38 0 -50 4 -50 15 0 11 12 15 50 15
38 0 50 -4 50 -15z m1690 -150 c431 -68 715 -171 936 -339 79 -60 88 -76 46
-76 -36 0 -66 -37 -94 -114 -17 -47 -18 -48 -11 -11 5 22 7 71 6 110 -3 83
-22 116 -77 129 -34 9 -40 8 -57 -15 -34 -42 -79 -145 -100 -226 -31 -124 -35
-241 -10 -351 19 -82 20 -111 15 -245 -6 -144 -6 -153 14 -170 17 -16 77 -27
85 -16 2 2 17 105 33 229 24 190 30 216 34 170 4 -43 14 -66 44 -108 l39 -54
-17 -96 c-26 -152 -18 -170 15 -32 16 69 40 168 54 220 l25 95 -7 -145 c-4
-80 -8 -197 -8 -260 0 -106 2 -119 27 -162 l26 -48 -38 20 c-222 113 -676 241
-1115 314 -322 54 -908 104 -1245 107 -63 1 -126 4 -140 8 -25 8 -25 8 7 15
17 4 36 13 41 19 6 7 27 121 48 254 21 133 40 240 42 238 2 -2 -2 -46 -9 -97
-18 -134 -17 -335 1 -373 l15 -30 122 -3 122 -3 6 48 c7 49 84 492 88 506 1 4
2 -116 2 -267 0 -151 4 -278 8 -283 5 -4 61 -8 125 -8 l117 0 7 55 c27 200 51
358 67 440 19 93 19 94 20 40 1 -30 -4 -149 -9 -264 -6 -115 -9 -210 -7 -213
3 -2 15 29 27 69 33 111 85 212 126 246 34 28 37 29 65 15 24 -12 29 -20 29
-52 0 -21 -4 -61 -10 -89 -11 -58 0 -139 25 -198 l17 -39 10 35 c6 19 27 152
47 295 l38 260 5 -81 c3 -45 4 -177 1 -295 l-5 -214 45 125 c64 182 117 300
134 300 24 0 70 -54 82 -96 9 -30 8 -70 -6 -180 -12 -103 -14 -148 -6 -165 9
-21 12 -12 26 66 29 157 47 317 47 416 0 91 1 97 22 102 12 4 24 4 27 2 2 -3
-6 -118 -19 -256 -23 -255 -22 -347 4 -396 l14 -27 19 40 c25 49 67 174 102
306 l27 101 23 -29 c25 -31 25 -31 5 -314 -4 -53 -2 -96 5 -114 7 -16 13 -27
16 -25 2 2 27 189 55 414 29 226 54 417 57 425 3 9 11 0 22 -25 l18 -40 7 50
c4 28 8 61 10 74 3 18 -14 41 -73 102 -70 73 -79 79 -117 79 -70 0 -123 -77
-124 -177 0 -55 -4 -58 -47 -47 -18 5 -23 14 -23 37 0 29 1 30 14 11 15 -19
15 -19 30 1 9 12 15 41 16 71 0 98 -67 155 -183 157 -77 1 -128 -22 -120 -53
4 -13 -9 -50 -33 -97 l-39 -75 -6 101 c-6 113 -19 143 -80 173 -48 25 -144 24
-186 -2 -38 -23 -43 -40 -10 -40 21 -1 21 -2 -7 -22 -36 -27 -56 -74 -56 -133
0 -41 -2 -45 -24 -45 -49 0 -56 8 -40 45 24 59 14 118 -32 182 -15 21 -15 21
48 27 35 3 81 8 103 10 99 9 485 -3 585 -19z m-993 -170 c-13 -74 -22 -83 -73
-71 l-25 7 32 42 c17 23 41 57 52 76 27 44 30 32 14 -54z m1183 -8 c0 -16 -47
-40 -61 -32 -15 10 -10 21 14 33 31 15 47 14 47 -1z m910 -349 c22 -49 26
-130 9 -208 l-11 -52 -32 30 c-17 16 -50 40 -73 54 l-42 24 49 49 50 49 0 70
c0 66 1 69 15 49 9 -13 24 -42 35 -65z m-2473 30 c-3 -7 -5 -2 -5 12 0 14 2
19 5 13 2 -7 2 -19 0 -25z m-331 -455 c0 -43 3 -95 7 -115 l8 -38 -44 0 -45 0
19 37 c10 20 26 72 36 115 9 43 17 78 17 78 1 0 1 -35 2 -77z m-256 -78 c0
-74 -2 -85 -17 -85 -16 0 -18 11 -18 85 0 74 2 85 18 85 15 0 17 -11 17 -85z
m2041 -303 c404 -87 739 -211 860 -320 91 -81 105 -142 75 -322 -15 -92 -34
-153 -35 -114 -1 11 -20 47 -43 79 l-41 58 11 87 c17 126 16 164 -7 184 -15
14 -29 16 -58 12 -36 -6 -41 -4 -88 44 -41 42 -55 50 -85 50 -20 0 -45 -7 -56
-15 -16 -13 -17 -16 -4 -25 8 -5 19 -11 24 -13 4 -1 -15 -38 -43 -82 -39 -62
-52 -75 -57 -61 -4 10 -2 21 4 25 18 11 32 60 32 114 0 65 -27 113 -75 133
-65 27 -105 15 -180 -51 l-30 -26 65 7 65 6 -75 -76 c-41 -42 -78 -76 -82 -76
-14 0 -21 53 -9 69 39 55 35 125 -11 177 -63 71 -207 65 -267 -12 -12 -15 -21
-21 -21 -14 0 41 -133 140 -188 140 -11 0 -57 -19 -101 -42 l-81 -42 -43 40
c-78 75 -110 94 -159 94 -53 0 -101 -28 -135 -79 -30 -44 -30 -65 -2 -56 20 7
21 5 15 -25 -3 -18 -16 -48 -28 -68 l-21 -35 -12 39 c-14 47 -48 114 -85 169
-14 22 -30 46 -34 53 -7 11 67 13 425 9 l434 -4 146 -31z m-1198 -55 c23 -72
22 -91 -15 -301 -23 -131 -32 -214 -32 -301 l-1 -120 53 -3 c31 -2 52 -8 52
-15 0 -6 -16 -38 -36 -69 -40 -66 -40 -70 35 -132 55 -46 101 -70 111 -59 4 4
29 116 54 248 26 132 55 278 64 325 l17 85 5 -235 5 -235 50 75 c28 41 64 101
80 132 34 65 50 71 89 32 46 -47 52 -89 33 -243 -11 -86 -14 -147 -9 -166 8
-26 11 -17 21 60 7 50 21 144 31 210 10 66 25 167 32 225 11 91 13 100 19 65
7 -39 2 -103 -21 -320 -14 -122 -9 -233 12 -284 l14 -34 37 114 c48 145 187
427 199 405 5 -9 16 -16 25 -16 13 0 15 -9 9 -52 -3 -29 -8 -111 -11 -183 -3
-71 -7 -170 -10 -218 -6 -114 10 -105 19 10 6 89 60 369 95 498 l19 70 1 -85
c0 -47 -8 -145 -19 -218 -27 -180 -25 -352 4 -354 21 -1 58 95 72 184 18 113
60 299 81 349 l15 37 36 -25 c20 -13 36 -30 35 -36 -2 -15 -42 -389 -47 -445
-2 -24 -2 -41 0 -39 3 2 23 91 45 198 22 107 50 237 64 289 l24 95 0 -75 c1
-41 -8 -163 -19 -270 -11 -107 -19 -217 -19 -245 0 -49 0 -48 24 40 35 131
150 435 165 435 4 0 18 -24 30 -52 22 -52 22 -56 11 -223 -6 -93 -11 -195 -10
-225 1 -52 2 -51 15 35 8 50 24 182 37 295 l23 205 38 -109 37 -109 -15 -96
c-35 -227 -31 -307 21 -359 20 -20 27 -23 33 -11 5 8 25 110 46 227 36 200 38
210 51 181 7 -17 29 -54 49 -81 l37 -50 -12 -101 c-7 -56 -15 -120 -18 -142
-3 -22 -3 -37 1 -34 4 4 18 78 33 165 14 88 29 179 33 204 13 77 10 2 -5 -143
-13 -134 -8 -248 14 -270 6 -6 38 179 54 318 2 17 5 -31 6 -106 0 -75 4 -164
7 -198 l7 -62 -27 7 c-36 9 -33 -5 15 -60 l41 -47 -53 22 c-472 187 -1043 306
-1739 363 -247 21 -556 36 -759 37 -91 1 -211 4 -266 8 l-100 6 101 7 c56 5
142 5 191 2 l89 -7 37 274 c21 151 38 283 37 293 0 11 3 17 6 14 3 -3 -2 -90
-11 -193 -16 -190 -14 -273 11 -332 l13 -33 120 0 119 0 6 28 c14 65 90 783
84 786 -29 12 -42 27 -39 42 10 57 12 118 2 144 l-10 30 42 0 c42 0 42 0 60
-53z m727 -156 c-10 -39 -13 -41 -47 -41 l-37 0 44 45 c24 24 45 43 48 41 2
-2 -2 -22 -8 -45z m365 -42 c-8 -28 -16 -53 -19 -56 -3 -3 -20 0 -37 7 l-31
13 48 43 c27 24 50 43 51 44 0 0 -5 -23 -12 -51z m543 -62 c3 -22 -1 -27 -17
-27 -17 0 -21 6 -21 31 0 24 4 30 18 27 10 -2 18 -14 20 -31z m246 -94 c9 -56
7 -123 -3 -123 -5 0 -12 26 -16 58 -3 31 -9 67 -12 80 -4 15 -1 22 10 22 9 0
17 -14 21 -37z m-2267 -40 c-3 -10 -5 -2 -5 17 0 19 2 27 5 18 2 -10 2 -26 0
-35z m-581 -220 c-3 -16 -12 -95 -21 -178 -20 -193 -24 -215 -41 -215 -17 0
-19 -18 16 205 16 105 30 196 30 203 0 6 5 12 11 12 6 0 8 -11 5 -27z m2931
-200 c-3 -10 -5 -4 -5 12 0 17 2 24 5 18 2 -7 2 -21 0 -30z m-856 -468 c133
-20 245 -46 439 -101 239 -67 399 -135 451 -190 l22 -24 -21 -87 c-11 -49 -23
-109 -27 -135 -7 -50 -18 -58 -56 -38 -15 9 -19 22 -19 71 0 65 -19 121 -52
156 -27 28 -42 18 -73 -48 l-21 -47 -17 70 c-19 81 -38 114 -73 130 -33 16
-54 -6 -93 -97 l-29 -70 -7 40 c-11 72 -39 128 -74 152 -85 58 -171 -3 -171
-121 0 -42 -2 -47 -17 -41 -10 4 -25 9 -35 12 -15 4 -14 8 4 39 27 46 35 139
15 186 -22 51 -58 72 -127 73 -46 0 -66 -6 -106 -30 -43 -27 -49 -35 -50 -65
-1 -32 -29 -148 -37 -157 -2 -1 -21 3 -43 11 l-39 14 38 7 37 7 0 70 c0 43 -6
80 -16 99 -22 44 -83 69 -167 69 -83 0 -129 -19 -158 -67 l-22 -35 -27 51
c-15 27 -38 62 -50 78 l-22 28 34 7 c57 12 497 0 609 -17z m-820 -11 c-23 -17
-81 -100 -81 -117 0 -5 7 -7 15 -3 18 7 18 -1 4 -60 -11 -44 -12 -44 -55 -44
l-44 0 20 33 c32 52 23 118 -26 185 l-16 22 103 0 c98 0 102 -1 80 -16z m-425
-84 c-9 -108 -10 -110 -62 -110 l-44 0 20 37 c22 42 25 69 11 107 -9 22 -7 26
17 35 63 22 66 19 58 -69z m724 -160 c0 -13 -7 -20 -19 -20 -56 0 -70 35 -16
38 29 2 35 -1 35 -18z m-1110 -120 c0 -17 -4 -38 -9 -48 -5 -9 -21 -143 -36
-297 -30 -323 -30 -325 -51 -325 -13 0 -15 8 -10 38 3 20 17 156 31 302 14
146 30 273 35 282 6 10 10 31 10 48 0 20 5 30 15 30 10 0 15 -10 15 -30z m347
-22 c-3 -8 -6 -5 -6 6 -1 11 2 17 5 13 3 -3 4 -12 1 -19z m348 -95 c-3 -54
-15 -156 -26 -228 -10 -71 -19 -161 -19 -200 0 -75 16 -149 30 -140 14 9 39
94 56 189 20 118 49 180 114 244 45 45 58 52 91 52 l39 0 0 -52 c0 -29 -11
-140 -25 -247 -14 -107 -23 -196 -21 -198 4 -5 14 49 51 292 14 94 29 178 33
188 4 10 5 -100 4 -243 -4 -245 -3 -262 15 -275 10 -8 21 -15 25 -15 13 0 48
132 68 255 28 176 60 253 133 324 29 27 41 32 62 27 14 -4 29 -14 32 -23 4 -9
-3 -103 -15 -208 -37 -315 -35 -348 7 -110 21 121 46 252 55 290 l16 70 -5
-95 c-3 -52 -12 -135 -21 -185 -18 -96 -24 -286 -11 -347 6 -27 13 -38 26 -38
29 0 42 23 51 92 13 91 36 196 73 333 l32 120 11 -94 c9 -84 13 -96 38 -116
27 -21 27 -22 17 -86 -22 -142 -31 -238 -23 -259 6 -16 23 55 65 266 31 159
58 298 61 309 6 24 -1 -136 -15 -345 -18 -251 -10 -251 49 0 29 124 59 258 68
298 l16 72 38 0 c38 0 38 -1 49 -50 15 -69 14 -161 -3 -278 -22 -150 -27 -234
-17 -267 5 -16 10 -25 10 -18 1 17 90 572 97 607 l6 30 24 -40 c24 -39 24 -41
24 -337 0 -257 2 -301 16 -322 32 -49 46 -27 88 130 2 6 6 -23 11 -62 4 -40
11 -73 16 -73 5 0 9 1 9 3 0 1 11 32 24 70 l23 67 7 -81 c4 -44 9 -79 12 -77
4 4 27 144 54 323 25 164 28 155 23 -65 -3 -124 -2 -221 3 -217 4 4 18 52 31
105 12 53 38 160 58 237 33 131 35 136 30 70 -4 -38 -15 -115 -26 -170 -30
-148 -36 -281 -15 -340 9 -27 23 -57 33 -67 9 -10 14 -18 10 -18 -3 0 -83 20
-179 44 -562 145 -1229 246 -1888 286 -96 6 -231 14 -300 18 l-125 7 54 19
c77 27 161 111 191 191 12 33 39 145 60 250 39 191 53 234 25 75 -17 -95 -19
-188 -6 -209 7 -11 13 -10 32 8 29 26 74 27 117 1 17 -11 32 -22 32 -26 0 -3
-27 -43 -60 -88 -33 -46 -60 -86 -60 -89 0 -4 35 -7 79 -7 l78 0 -10 -38 c-10
-39 -3 -92 12 -92 10 0 27 71 102 423 29 136 54 247 57 247 2 0 1 -44 -3 -97z
m-1265 2 c0 -2 -13 -117 -30 -255 -16 -138 -30 -255 -30 -260 0 -6 -7 -10 -15
-10 -20 0 -20 -10 20 270 19 134 35 247 35 251 0 5 5 9 10 9 6 0 10 -2 10 -5z
m2820 -246 c0 -24 -4 -30 -17 -27 -11 2 -19 14 -21 31 -3 22 1 27 17 27 17 0
21 -6 21 -31z m-2570 -85 c0 -28 -4 -35 -17 -32 -24 4 -25 68 0 68 13 0 17 -8
17 -36z m2630 -112 c0 -37 -4 -49 -15 -49 -11 0 -15 12 -15 49 0 36 4 48 15
48 11 0 15 -12 15 -48z m-2652 -97 c-2 -1 -25 -5 -53 -8 l-50 -6 38 16 c26 11
37 22 37 37 1 18 3 18 16 -7 9 -16 14 -30 12 -32z m1862 -290 c267 -27 664
-98 769 -137 53 -20 131 -80 131 -101 0 -6 -18 6 -40 28 l-40 39 -25 -24 -25
-23 21 -15 c18 -13 49 -68 49 -88 0 -4 -11 2 -23 14 l-24 22 -25 -20 c-15 -12
-29 -35 -33 -57 -4 -21 -18 -73 -32 -116 l-25 -79 29 -30 c32 -34 122 -102
127 -97 2 2 9 14 15 27 l13 24 33 -39 33 -38 -64 -6 c-36 -3 -69 -10 -73 -15
-5 -5 -17 -94 -25 -199 -22 -251 -47 -467 -97 -828 l-42 -297 -118 0 -118 0 5
32 c2 18 13 116 24 218 23 203 79 631 111 835 l19 130 87 87 87 87 -30 11
c-16 6 -46 10 -66 8 -38 -4 -38 -3 -38 34 0 20 4 39 9 43 26 16 52 122 53 212
0 81 -3 100 -26 147 -22 46 -35 59 -78 80 -29 14 -68 26 -88 26 -42 0 -119
-36 -172 -80 -34 -28 -36 -33 -23 -46 12 -12 12 -19 2 -34 -6 -11 -15 -20 -20
-20 -24 0 8 -19 42 -25 l38 -6 -5 -72 c-4 -64 -1 -75 19 -101 27 -35 75 -56
128 -56 l39 0 -60 110 c-34 61 -58 114 -54 117 12 13 85 -18 110 -47 41 -50
49 -116 31 -271 -101 -878 -169 -1425 -177 -1430 -29 -18 -495 -15 -514 3 -5
5 152 1260 161 1286 2 6 20 12 38 12 45 0 95 35 135 94 17 26 32 52 32 56 0
14 -66 31 -148 40 -96 9 -114 0 -148 -77 l-25 -56 22 -15 c47 -33 60 -53 55
-80 -3 -15 -37 -304 -76 -642 -39 -338 -73 -625 -76 -637 l-4 -23 -320 0 -320
0 0 24 c0 81 219 1470 232 1475 25 8 91 78 84 89 -4 6 -25 16 -47 22 -28 8
-39 16 -35 25 24 64 10 207 -28 291 -29 64 -95 136 -153 171 -24 14 -43 27
-43 30 0 12 670 -6 820 -22z m-1221 -69 c-66 -65 -109 -129 -96 -142 4 -4 23
0 42 9 46 22 52 21 31 -2 -17 -18 -16 -19 19 -31 20 -7 56 -10 81 -8 24 2 44
2 44 1 0 -2 -20 -21 -45 -44 -25 -23 -45 -44 -45 -48 0 -4 35 -19 78 -35 42
-16 105 -42 140 -58 55 -26 70 -29 117 -23 l54 6 7 -36 c9 -52 -5 -75 -93
-150 -78 -66 -78 -67 -133 -63 l-55 3 -12 -110 c-7 -60 -12 -148 -10 -195 l2
-85 42 -15 c69 -23 72 -16 75 193 l3 177 40 -6 c103 -15 110 -18 108 -50 -2
-29 -158 -1227 -169 -1296 l-6 -38 -312 0 -312 0 28 137 c48 242 108 689 138
1045 6 70 17 163 25 208 13 75 20 88 89 188 86 122 87 116 -32 127 l-70 7 24
36 c23 33 24 44 24 178 l0 143 58 6 c47 6 82 13 182 34 2 1 -25 -28 -61 -63z
m1705 -128 c22 -31 13 -36 -45 -26 -34 6 -61 6 -82 -1 -48 -17 -43 -5 10 23
60 31 97 33 117 4z m-1143 -130 c1 -7 3 -23 4 -35 2 -17 -3 -23 -16 -23 -15 0
-19 8 -19 35 0 24 5 35 15 35 8 0 16 -6 16 -12z m1449 -98 c0 -63 -24 -70 -34
-9 -7 44 -2 59 20 59 10 0 14 -13 14 -50z m-2768 -165 c18 -34 20 -50 15 -125
-9 -118 -32 -199 -67 -231 -16 -15 -31 -41 -34 -60 -8 -46 -43 -546 -56 -804
-6 -116 -13 -229 -16 -252 -5 -41 -6 -43 -40 -43 -36 0 -36 0 -30 38 6 40 186
1525 186 1539 0 10 15 -12 42 -62z m2842 -397 c-4 -35 -30 -286 -58 -558 l-52
-495 -33 2 c-18 0 -34 3 -36 5 -2 1 21 219 50 483 30 264 57 507 60 540 9 83
10 85 45 85 l31 0 -7 -62z m249 -768 c62 0 77 -9 77 -46 0 -31 -1 -33 -27 -24
-16 5 -49 11 -74 15 -37 5 -48 11 -53 28 -11 42 -8 47 20 37 14 -6 40 -10 57
-10z m-113 0 c0 -19 -23 -60 -34 -60 -6 1 -42 16 -81 35 l-70 33 93 1 c52 1
92 -3 92 -9z m332 -31 l78 -21 0 -36 0 -36 -29 28 c-27 26 -35 28 -90 24 l-61
-4 0 33 c0 39 1 39 102 12z m-3992 -59 l20 -40 -71 0 c-40 0 -70 2 -68 4 8 8
94 76 96 76 2 0 12 -18 23 -40z m4213 21 c4 -4 -2 -20 -13 -34 -17 -21 -30
-27 -60 -27 l-38 0 11 41 10 41 41 -6 c23 -4 45 -11 49 -15z m-4655 -63 l-3
-33 -80 -6 c-44 -3 -101 -9 -127 -13 -29 -4 -48 -3 -48 2 0 14 28 35 38 28 5
-3 46 8 93 24 46 17 94 30 107 30 20 0 23 -4 20 -32z m-333 -78 c23 -25 16
-33 -18 -21 -18 7 -25 15 -21 26 8 20 17 19 39 -5z m775 -65 c0 -16 -6 -25
-15 -25 -9 0 -15 9 -15 25 0 16 6 25 15 25 9 0 15 -9 15 -25z m4292 -10 c1 -6
-19 -25 -44 -43 -36 -25 -47 -29 -51 -18 -4 10 9 26 36 46 41 30 58 34 59 15z
m-894 -42 c6 -10 13 -42 17 -70 6 -43 4 -53 -8 -53 -18 0 -27 30 -27 93 0 51
4 57 18 30z m-94 -20 c-3 -16 -8 -50 -12 -78 l-7 -50 -90 -7 c-50 -4 -106 -9
-125 -11 l-35 -4 10 76 11 76 108 7 c59 3 110 9 114 12 16 17 31 4 26 -21z
m56 -38 c0 -55 -3 -65 -17 -65 -14 0 -19 10 -21 46 -4 55 5 84 24 84 11 0 14
-15 14 -65z m-3406 29 c11 -30 7 -42 -14 -37 -11 3 -20 9 -20 13 0 16 12 40
20 40 4 0 11 -7 14 -16z m3068 -18 c-4 -33 -21 -68 -51 -106 l-21 -25 0 83 0
83 38 -3 c34 -3 37 -5 34 -32z m-2412 -20 l65 -11 3 -58 3 -58 -128 3 -128 3
3 30 c2 17 8 47 13 68 10 36 11 37 57 36 26 -1 76 -6 112 -13z m1862 -18 c2
-21 8 -33 18 -33 11 0 14 9 12 33 l-2 32 205 0 205 0 0 -75 0 -75 -257 0 -258
0 3 75 4 75 33 0 c31 0 34 -3 37 -32z m-107 -58 l0 -75 -297 0 c-163 0 -299 3
-303 6 -12 13 58 138 79 142 12 3 134 4 271 3 l250 -1 0 -75z m-1185 -3 l0
-58 -237 6 -238 6 -3 52 -3 52 241 1 240 0 0 -59z m473 6 c-3 -32 -6 -64 -8
-70 -3 -10 -50 -13 -188 -13 -102 0 -199 3 -216 6 -31 6 -31 7 -31 70 l0 64
223 0 224 0 -4 -57z m2267 42 c0 -12 -19 -15 -115 -15 -96 0 -115 3 -115 15 0
12 19 15 115 15 96 0 115 -3 115 -15z m-4408 -18 c11 -17 -1 -27 -33 -27 -19
0 -29 5 -29 15 0 10 -10 15 -30 15 -16 0 -30 5 -30 11 0 15 112 2 122 -14z
m3844 -51 c10 -8 17 -16 14 -19 -6 -6 -253 -28 -257 -23 -3 3 187 52 213 55 5
0 19 -5 30 -13z m-3382 -12 c111 -6 126 -9 111 -21 -25 -18 -65 -16 -235 12
-103 18 -125 23 -75 20 39 -3 128 -8 199 -11z m531 -49 l150 -14 -155 4 c-85
2 -168 8 -185 13 l-30 10 35 0 c19 0 103 -6 185 -13z m1725 -50 c0 -13 -76
-15 -620 -15 -544 0 -620 2 -620 15 0 13 76 15 620 15 544 0 620 -2 620 -15z"/>
<path d="M4473 7673 c-68 -153 -90 -257 -108 -513 -8 -107 -14 -220 -14 -250
l0 -55 19 71 c18 72 85 242 100 257 12 13 58 -15 79 -47 l19 -28 11 68 c5 38
17 130 26 204 9 74 18 141 20 148 3 9 13 4 30 -15 l24 -28 1 87 c0 84 -1 87
-28 107 -27 19 -124 61 -141 61 -5 0 -22 -30 -38 -67z m115 -26 c20 -21 21
-37 1 -37 -4 0 -17 14 -29 30 -26 37 -5 42 28 7z"/>
<path d="M4562 7020 c-1 -25 -4 -63 -7 -85 l-5 -40 11 40 c5 22 8 60 6 85 l-3
45 -2 -45z"/>
<path d="M4404 6425 c-30 -26 -36 -36 -26 -43 11 -8 9 -19 -12 -61 -15 -28
-39 -102 -55 -164 -29 -111 -76 -376 -68 -383 2 -3 20 22 40 53 20 32 41 65
46 73 8 12 13 11 31 -5 12 -11 32 -38 44 -60 19 -37 21 -54 20 -205 -1 -91 0
-154 3 -140 9 58 47 332 78 560 18 135 33 228 34 208 1 -21 5 -38 10 -38 10 0
41 61 41 80 0 16 -86 116 -120 140 l-27 19 -39 -34z"/>
<path d="M3540 2643 c-24 -9 -171 -95 -168 -99 2 -1 24 2 48 7 54 13 178 4
250 -17 65 -19 133 -80 156 -139 9 -24 19 -79 23 -121 l6 -77 28 40 c25 36 27
45 21 99 -17 168 -83 261 -210 300 -46 14 -125 18 -154 7z"/>
<path d="M3487 2526 c-48 -18 -103 -56 -148 -102 -30 -32 -31 -36 -10 -29 84
26 155 44 158 41 2 -2 23 -52 47 -112 l43 -109 77 -3 c42 -2 76 0 76 3 0 3
-25 42 -55 86 -61 89 -66 104 -32 93 67 -21 122 -105 134 -204 l6 -54 15 39
c23 65 19 137 -11 187 -73 124 -206 197 -300 164z"/>
<path d="M3396 1523 c-20 -66 -59 -323 -60 -392 l-1 -85 34 -23 c49 -34 68
-30 80 15 14 55 40 264 47 391 l7 111 -51 0 c-40 0 -52 -4 -56 -17z"/>
<path d="M4050 330 c-11 -7 -4 -10 28 -10 23 0 42 5 42 10 0 13 -50 13 -70 0z"/>
</g>
</svg>
